<?xml version="1.0" encoding="utf-8"?>
<!-- Generator: Adobe Illustrator 25.2.3, SVG Export Plug-In . SVG Version: 6.00 Build 0)  -->
<svg version="1.1" id="Layer_1_copy" xmlns="http://www.w3.org/2000/svg" xmlns:xlink="http://www.w3.org/1999/xlink" x="0px"
	 y="0px" viewBox="0 0 481.2 550" style="enable-background:new 0 0 481.2 550;" xml:space="preserve">
<style type="text/css">
	.st0{fill:#E44146;}
	.st1{fill:#4836B9;}
</style>
<path class="st0" d="M16.6,115c0-17.7,14.3-32,32-32h384c17.7,0,32,14.3,32,32s-14.3,32-32,32h-384C30.9,147,16.6,132.7,16.6,115z
	 M16.6,275c0-17.7,14.3-32,32-32h384c17.7,0,32,14.3,32,32s-14.3,32-32,32h-384C30.9,307,16.6,292.7,16.6,275z M464.6,435
	c0,17.7-14.3,32-32,32h-384c-17.7,0-32-14.3-32-32s14.3-32,32-32h384C450.3,403,464.6,417.3,464.6,435z"/>
<path class="st1" d="M16.6,95c0-17.7,14.3-32,32-32h384c17.7,0,32,14.3,32,32s-14.3,32-32,32h-384C30.9,127,16.6,112.7,16.6,95z
	 M16.6,255c0-17.7,14.3-32,32-32h384c17.7,0,32,14.3,32,32s-14.3,32-32,32h-384C30.9,287,16.6,272.7,16.6,255z M464.6,415
	c0,17.7-14.3,32-32,32h-384c-17.7,0-32-14.3-32-32s14.3-32,32-32h384C450.3,383,464.6,397.3,464.6,415z"/>
</svg>
